<?xml version="1.0" encoding="utf-8"?>
<!-- Generator: Adobe Illustrator 24.3.0, SVG Export Plug-In . SVG Version: 6.00 Build 0)  -->
<svg version="1.1" id="Capa_1" xmlns="http://www.w3.org/2000/svg" xmlns:xlink="http://www.w3.org/1999/xlink" x="0px" y="0px"
	 viewBox="0 0 500 500" style="enable-background:new 0 0 500 500;" xml:space="preserve">
<style type="text/css">
	.st0{fill:#FFFFFF;}
	.st1{fill:#84D9BC;}
</style>
<g>
	<path class="st0" d="M76.95,217.99v134.98c0.03,4.86-3.89,8.83-8.75,8.85c-0.33,0-0.66-0.01-0.99-0.05
		c-42.08-5.43-71.79-43.94-66.36-86.01c4.47-34.63,31.73-61.9,66.36-66.36c4.83-0.52,9.17,2.98,9.69,7.81
		C76.93,217.46,76.95,217.72,76.95,217.99z"/>
	<path class="st0" d="M100.28,369.51L100.28,369.51c-6.67-0.02-12.06-5.42-12.06-12.09V213.64c-0.02-6.66,5.37-12.07,12.03-12.09
		c0.01,0,0.02,0,0.03,0l0,0c6.66-0.02,12.07,5.37,12.09,12.03c0,0.02,0,0.04,0,0.06v143.78
		C112.37,364.1,106.96,369.51,100.28,369.51z"/>
	<path class="st0" d="M447.9,204.43c0,5.05-0.21,10.06-0.56,15.02h-18.96c0.44-4.96,0.65-9.98,0.65-15.02
		c-0.03-15.3-2-30.53-5.87-45.33h-16.81C381.27,72.66,290.87,22.91,204.43,48c-53.62,15.56-95.54,57.48-111.1,111.1H76.51
		c-3.87,14.8-5.84,30.04-5.87,45.33c0,5.05,0.21,10.06,0.65,15.02H52.33c-0.35-4.96-0.56-9.98-0.56-15.02
		c0.02-109.34,88.67-197.96,198-197.94C359.1,6.5,447.71,95.12,447.73,204.43H447.9z"/>
	<path class="st0" d="M423.05,217.99v134.98c-0.03,4.86,3.89,8.83,8.75,8.85c0.33,0,0.66-0.01,0.99-0.05
		c42.08-5.43,71.79-43.94,66.36-86.01c-4.47-34.63-31.73-61.9-66.36-66.36c-4.83-0.52-9.17,2.98-9.69,7.81
		C423.07,217.46,423.05,217.72,423.05,217.99z"/>
	<path class="st0" d="M399.57,369.51L399.57,369.51c6.67-0.02,12.06-5.42,12.06-12.09V213.64c0.02-6.66-5.37-12.07-12.03-12.09
		c-0.01,0-0.02,0-0.03,0l0,0c-6.66-0.02-12.07,5.37-12.09,12.03c0,0.02,0,0.04,0,0.06v143.78
		C387.48,364.1,392.9,369.51,399.57,369.51z"/>
	<path class="st1" d="M276.01,196.04h-52.17c-3.06,0-5.55-2.48-5.55-5.54c0-3.06,2.48-5.55,5.54-5.55c0,0,0.01,0,0.01,0h52.17
		c3.06,0,5.55,2.48,5.55,5.54C281.56,193.55,279.08,196.04,276.01,196.04C276.02,196.04,276.02,196.04,276.01,196.04z"/>
	<path class="st1" d="M264.07,173.09h-28.29c-3.07-0.22-5.38-2.89-5.16-5.96c0.2-2.76,2.4-4.96,5.16-5.16h28.29
		c3.07,0.22,5.38,2.89,5.16,5.96C269.03,170.7,266.83,172.89,264.07,173.09z"/>
	<path class="st1" d="M290.21,219.01h-80.57c-3.07-0.22-5.38-2.89-5.16-5.96c0.2-2.76,2.4-4.96,5.16-5.16h80.57
		c3.07,0.22,5.38,2.89,5.16,5.96C295.17,216.62,292.97,218.81,290.21,219.01z"/>
	<path class="st1" d="M290.21,242.63h-80.57c-3.06,0-5.54-2.49-5.54-5.55c0-3.06,2.48-5.54,5.54-5.54h80.57
		c3.06,0,5.54,2.49,5.54,5.55C295.75,240.15,293.27,242.63,290.21,242.63z"/>
	<path class="st0" d="M155.56,276.14h-12.85c-3.82,0-6.92-3.1-6.92-6.92l0,0l0,0c0-3.82,3.1-6.92,6.92-6.92l0,0h12.85
		c3.82-0.02,6.94,3.07,6.95,6.9c0,0.01,0,0.02,0,0.03l0,0c0,3.82-3.1,6.92-6.92,6.92C155.58,276.14,155.57,276.14,155.56,276.14z"/>
	<path class="st0" d="M356.15,276.14h-12.85c-3.82,0.02-6.94-3.07-6.95-6.9c0-0.01,0-0.02,0-0.03l0,0c0-3.82,3.1-6.92,6.92-6.92
		c0.01,0,0.02,0,0.03,0h12.85c3.82,0,6.92,3.1,6.92,6.92l0,0C363.07,273.04,359.97,276.14,356.15,276.14z"/>
	<path class="st0" d="M249.93,144.1c34.94,0.03,63.26,28.35,63.29,63.29V317.6c0,34.96-28.34,63.29-63.3,63.28
		c-34.95,0-63.28-28.34-63.28-63.28V207.45C186.63,172.49,214.96,144.13,249.93,144.1 M249.93,133.01L249.93,133.01
		c-41.08,0-74.38,33.3-74.38,74.38l0,0V317.6c-0.03,41.08,33.24,74.41,74.32,74.44c0.02,0,0.04,0,0.06,0l0,0
		c41.08,0,74.38-33.3,74.38-74.38v0V207.45c0-41.08-33.3-74.38-74.38-74.38V133.01z"/>
	<path class="st0" d="M249.93,133.04c-41.09,0.02-74.38,33.33-74.38,74.41v110.21c0,41.08,33.3,74.38,74.38,74.38
		s74.38-33.3,74.38-74.38V207.45C324.31,166.37,291.01,133.06,249.93,133.04z M313.22,317.66c0,34.96-28.34,63.29-63.3,63.28
		c-34.95,0-63.28-28.34-63.28-63.28V207.45c0-34.96,28.33-63.3,63.28-63.3c34.96,0,63.3,28.33,63.3,63.28c0,0,0,0.01,0,0.01V317.66z
		"/>
	<path class="st0" d="M342.24,262.56v53.43c-0.01,50.98-41.34,92.31-92.33,92.3c-50.97-0.01-92.29-41.33-92.3-92.3v-53.43h-15.55
		v53.43c0.03,59.57,48.34,107.84,107.91,107.81c59.53-0.03,107.79-48.28,107.81-107.81v-53.43H342.24z"/>
	<path class="st0" d="M324.31,262.41v55.25c-0.01,41.08-33.33,74.37-74.41,74.36c-41.06-0.01-74.34-33.3-74.36-74.36v-55.25H324.31z
		"/>
	<rect x="235.78" y="422.89" class="st0" width="28.26" height="41.75"/>
	<path class="st0" d="M206.85,483.07L206.85,483.07c-0.02-5.77,4.65-10.46,10.42-10.48c0.01,0,0.02,0,0.03,0h65.26
		c5.77,0,10.45,4.68,10.45,10.45c0,0.01,0,0.02,0,0.03l0,0c0,5.77-4.68,10.45-10.45,10.45H217.3
		C211.53,493.51,206.85,488.84,206.85,483.07z"/>
</g>
</svg>
